<svg width="271" height="271" viewBox="0 0 271 271" fill="none" xmlns="http://www.w3.org/2000/svg">
<rect width="271" height="271" rx="3" fill="#C29A55"/>
<path d="M75.0773 123.88C75.3247 123.368 75.9507 123.144 76.4887 123.315L86.7046 126.568C87.2128 126.73 87.4283 127.24 87.1926 127.723L33.4038 237.972C33.2242 238.341 32.8283 238.604 32.3961 238.629C29.5034 238.793 18.862 239.146 20.9887 235.25C23.3144 230.99 70.1161 134.147 75.0773 123.88Z" fill="#D7C7AB"/>
<path d="M74.9999 130.054C74.8354 129.525 75.1459 129.019 75.6923 128.925L86.6162 127.053C87.1611 126.959 87.7338 127.312 87.8951 127.84L105.845 186.626C106.005 187.152 105.697 187.654 105.155 187.749L94.5579 189.615C94.014 189.711 93.4401 189.361 93.2761 188.834L74.9999 130.054Z" fill="#D7C7AB"/>
<path d="M123.654 167.713C123.654 167.159 124.105 166.71 124.659 166.713L136.058 166.772C136.61 166.775 137.055 167.224 137.053 167.777L136.727 239.677C136.725 240.227 136.278 240.672 135.727 240.672H124.654C124.102 240.672 123.654 240.224 123.654 239.672V167.713Z" fill="#D7C7AB"/>
<path d="M123.654 124.004C123.654 123.451 124.103 123.003 124.656 123.004L136.05 123.031C136.605 123.032 137.053 123.485 137.047 124.041L136.733 155.632C136.727 156.18 136.281 156.622 135.733 156.622H124.654C124.102 156.622 123.654 156.174 123.654 155.622V124.004Z" fill="#D7C7AB"/>
<path d="M133.593 176.794C133.039 176.794 132.59 176.343 132.593 175.789L132.634 166.708L180.74 166.954C181.29 166.957 181.735 167.404 181.735 167.954V175.794C181.735 176.346 181.287 176.794 180.735 176.794H133.593Z" fill="#D7C7AB"/>
<path d="M133.594 133.088C133.04 133.088 132.591 132.636 132.594 132.082L132.647 123.002L194.143 123.25C194.693 123.252 195.139 123.699 195.139 124.25V132.088C195.139 132.64 194.691 133.088 194.139 133.088H133.594Z" fill="#D7C7AB"/>
</svg>
