<svg width="35" height="35" viewBox="0 0 35 35" fill="none" xmlns="http://www.w3.org/2000/svg">
<path d="M9.43237 23.3365H11.6363C13.1697 14.6379 20.746 8.02405 29.8843 8.02405C30.2672 8.02405 30.6314 8.02732 30.9989 8.0306L26.9914 12.037C26.5637 12.4647 26.5637 13.1559 26.9914 13.5836C27.2047 13.7968 27.4847 13.904 27.7646 13.904C28.0446 13.904 28.3247 13.7968 28.5379 13.5836L34.9997 6.95215L28.539 0.320751C28.1113 -0.106917 27.4201 -0.106917 26.9924 0.320751C26.5647 0.748419 26.5647 1.43965 26.9924 1.86732L30.9638 5.83871C30.6159 5.83762 30.2857 5.83543 29.9302 5.83543C19.5725 5.83652 11.0096 13.4216 9.43237 23.3365Z" fill="black" fill-opacity="0.8"/>
<path d="M31.7186 16.4065C31.1149 16.4065 30.6249 16.8965 30.6249 17.5002V32.8126H2.18753V10.9377H12.0313C12.635 10.9377 13.125 10.4477 13.125 9.84399C13.125 9.24022 12.6349 8.75027 12.0313 8.75027H11.9984H2.18753C0.980073 8.75027 0 9.73026 0 10.9378V32.8127C0 34.0202 0.979982 35.0002 2.18753 35.0002H30.6249C31.8324 35.0002 32.8124 34.0202 32.8124 32.8127V17.5002C32.8124 16.8964 32.3224 16.4065 31.7186 16.4065Z" fill="black" fill-opacity="0.8"/>
</svg>
