<svg width="28" height="27" viewBox="0 0 28 27" fill="none" xmlns="http://www.w3.org/2000/svg">
<path d="M14.0001 0.540039C6.57726 0.540039 0.560059 6.34234 0.560059 13.5C0.560059 20.6577 6.57726 26.46 14.0001 26.46C21.4229 26.46 27.4401 20.6577 27.4401 13.5C27.4401 6.34234 21.4229 0.540039 14.0001 0.540039ZM10.7101 18.8717H7.98846V10.4261H10.7101V18.8717ZM9.33246 9.38929C8.47286 9.38929 7.91706 8.80204 7.91706 8.07574C7.91706 7.33459 8.48966 6.76489 9.36746 6.76489C10.2453 6.76489 10.7829 7.33459 10.7997 8.07574C10.7997 8.80204 10.2453 9.38929 9.33246 9.38929ZM20.6501 18.8717H17.9285V14.1912C17.9285 13.1018 17.5337 12.362 16.5495 12.362C15.7977 12.362 15.3511 12.8628 15.1537 13.3448C15.0809 13.5162 15.0627 13.7592 15.0627 14.0009V18.8703H12.3397V13.1193C12.3397 12.065 12.3047 11.1834 12.2683 10.4247H14.6329L14.7575 11.5979H14.8121C15.1705 11.0471 16.0483 10.2344 17.5169 10.2344C19.3075 10.2344 20.6501 11.3913 20.6501 13.878V18.8717Z" fill="#5B8174"/>
</svg>
