<svg width="46" height="47" viewBox="0 0 46 47" fill="none" xmlns="http://www.w3.org/2000/svg">
<g clip-path="url(#clip0)">
<path d="M13.189 26.2539C12.693 26.2539 12.2905 26.6652 12.2905 27.1719C12.2905 27.6786 12.693 28.0898 13.189 28.0898C13.6849 28.0898 14.0874 27.6786 14.0874 27.1719C14.0874 26.6652 13.6849 26.2539 13.189 26.2539Z" fill="black"/>
<path d="M13.189 29.9258C12.6928 29.9258 12.2905 30.3368 12.2905 30.8438V42.4102C12.2905 42.9172 12.6928 43.3281 13.189 43.3281C13.6852 43.3281 14.0874 42.9172 14.0874 42.4102V30.8438C14.0874 30.3368 13.6851 29.9258 13.189 29.9258Z" fill="black"/>
<path d="M38.1113 0.689965C38.0373 0.394839 37.8247 0.156442 37.544 0.0537213C37.2633 -0.0489076 36.951 -0.00273376 36.7104 0.177188C35.8126 0.848682 31.2969 4.30272 30.5614 6.3665C30.1241 7.59575 30.2235 8.93755 30.8105 10.0742C29.709 11.6885 28.5681 13.9175 27.564 16.0954V0.917989C27.564 0.410995 27.1617 2.01554e-05 26.6655 2.01554e-05H19.478C18.9818 2.01554e-05 18.5796 0.410995 18.5796 0.917989V18.9102H18.4183L16.8838 12.8104C16.8831 12.8073 16.8823 12.8043 16.8815 12.8013L15.4862 7.48165C15.4861 7.48147 15.4861 7.48128 15.486 7.4811C15.4779 7.45053 15.4681 7.42042 15.457 7.39077C15.4536 7.38168 15.4495 7.37296 15.4458 7.36397C15.4373 7.34331 15.4285 7.32293 15.4185 7.30292C15.4137 7.29319 15.4084 7.28383 15.4032 7.27428C15.393 7.25546 15.3823 7.23692 15.3708 7.21884C15.365 7.20975 15.359 7.20084 15.3529 7.19194C15.3406 7.17404 15.3276 7.15669 15.3141 7.13961C15.3103 7.13493 15.3072 7.12979 15.3034 7.1252L9.97204 0.706764C9.74887 0.438075 9.39488 0.323696 9.06111 0.41228C8.72734 0.500864 8.47264 0.776897 8.4057 1.1226L6.7948 9.44124C6.79364 9.44739 6.79337 9.45363 6.79229 9.45969C6.78816 9.48365 6.78474 9.50761 6.7825 9.53166C6.78151 9.54185 6.78088 9.55204 6.78025 9.56223C6.7789 9.58518 6.77836 9.60794 6.77863 9.6308C6.77872 9.64145 6.77881 9.6521 6.77935 9.66274C6.78043 9.68615 6.78268 9.70938 6.78555 9.7326C6.78672 9.74215 6.78744 9.7516 6.78887 9.76106C6.79382 9.79346 6.8001 9.8255 6.80837 9.85717L8.20203 15.1715L9.13694 18.9504C8.59159 19.0454 8.08891 19.3089 7.68956 19.7169C7.18041 20.2372 6.89992 20.9287 6.89992 21.664C6.89992 22.8607 7.6511 23.8811 8.6968 24.26V42.4102C8.6968 44.941 10.712 47 13.189 47H31.1577C33.6347 47 35.6499 44.941 35.6499 42.4102V24.2616C36.0244 24.1265 36.3679 23.9067 36.6572 23.6112C37.1664 23.0909 37.4468 22.3994 37.4468 21.6641C37.4468 20.3227 36.5031 19.2029 35.2586 18.9597C35.8446 16.5268 36.2577 14.1089 36.4102 12.2119C37.6096 11.7379 38.5557 10.7649 39.0044 9.50568C39.7414 7.43786 38.3898 1.79933 38.1113 0.689965ZM32.006 11.5439C32.3775 11.8426 32.7948 12.0811 33.2465 12.2491C33.6783 12.4097 34.1271 12.5007 34.5784 12.5218C34.3982 14.3521 33.9855 16.6308 33.4184 18.9102H28.2826C29.6546 15.7336 30.9218 13.2272 32.006 11.5439ZM20.3765 1.83596H25.7671V3.94729H23.9702C23.4741 3.94729 23.0718 4.35826 23.0718 4.86525C23.0718 5.37225 23.4741 5.78322 23.9702 5.78322H25.7671V7.61916H23.9702C23.4741 7.61916 23.0718 8.03014 23.0718 8.53713C23.0718 9.04412 23.4741 9.4551 23.9702 9.4551H25.7671V11.291H23.9702C23.4741 11.291 23.0718 11.702 23.0718 12.209C23.0718 12.716 23.4741 13.127 23.9702 13.127H25.7671V14.9629H23.9702C23.4741 14.9629 23.0718 15.3739 23.0718 15.8809C23.0718 16.3879 23.4741 16.7988 23.9702 16.7988H25.7671V18.9102H20.3765V1.83596ZM9.80691 3.34537L13.4929 7.78302C12.9389 8.49821 12.1781 9.01117 11.2998 9.25149C10.425 9.49099 9.51896 9.43665 8.69185 9.1037L9.80691 3.34537ZM8.99625 11.1069C9.39425 11.1921 9.79963 11.2357 10.2072 11.2357C10.7266 11.2357 11.2496 11.1659 11.7648 11.0249C12.6846 10.7732 13.5131 10.3109 14.2026 9.68037L15.1447 13.2721L16.5631 18.9102H10.9803L9.94239 14.715C9.9414 14.7107 9.94032 14.7065 9.93916 14.7024L8.99625 11.1069ZM33.8531 42.4102C33.8531 43.9287 32.6439 45.1641 31.1577 45.1641H13.189C11.7028 45.1641 10.4937 43.9287 10.4937 42.4102V24.418H33.8531V42.4102ZM35.6499 21.6641C35.6499 21.909 35.5564 22.1395 35.3866 22.3129C35.2167 22.4865 34.9912 22.5821 34.7515 22.5821H9.59523C9.09983 22.5821 8.6968 22.1703 8.6968 21.6641C8.6968 21.4192 8.79032 21.1887 8.96013 21.0153C9.13002 20.8417 9.35553 20.7461 9.59523 20.7461H17.7158C17.7176 20.7461 17.7193 20.7463 17.721 20.7463C17.7221 20.7463 17.7233 20.7461 17.7245 20.7461H26.9087C26.9101 20.7461 26.9116 20.7463 26.9131 20.7463C26.9141 20.7463 26.915 20.7461 26.9161 20.7461H34.1099C34.111 20.7461 34.1122 20.7463 34.1132 20.7463C34.115 20.7463 34.1167 20.7461 34.1185 20.7461H34.7516C35.2468 20.7461 35.6499 21.1579 35.6499 21.6641ZM37.3159 8.87761C36.9988 9.7673 36.2684 10.4206 35.3599 10.6255C34.8628 10.7388 34.3446 10.7036 33.8611 10.524C33.3603 10.3376 32.9291 10.0081 32.6145 9.57122C32.6144 9.57104 32.6142 9.57086 32.6141 9.57067C32.077 8.82592 31.941 7.86261 32.2498 6.9943C32.5865 6.04953 34.7781 4.03495 36.6855 2.50259C37.2102 4.93869 37.652 7.93458 37.3159 8.87761Z" fill="black"/>
</g>
<defs>
<clipPath id="clip0">
<rect width="46" height="47" fill="white"/>
</clipPath>
</defs>
</svg>
