<svg width="396" height="12" viewBox="0 0 396 12" fill="none" xmlns="http://www.w3.org/2000/svg">
<line x1="0.981445" y1="11" x2="395.981" y2="11" stroke="#213337" stroke-width="2"/>
<rect x="2.81519" width="3.28856" height="9.89313" fill="#5B8174"/>
<rect x="18.1619" width="3.28856" height="9.89313" fill="#5B8174"/>
<rect x="13.0464" width="3.28856" height="9.89313" fill="#5B8174"/>
<rect x="7.93066" width="3.28856" height="9.89313" fill="#5B8174"/>
<rect x="43.7395" width="3.28856" height="9.89313" fill="#5B8174"/>
<rect x="59.0862" width="3.28856" height="9.89313" fill="#5B8174"/>
<rect x="53.9707" width="3.28856" height="9.89313" fill="#5B8174"/>
<rect x="48.855" width="3.28856" height="9.89313" fill="#5B8174"/>
<rect x="23.2773" width="3.28856" height="9.89313" fill="#5B8174"/>
<rect x="38.624" width="3.28856" height="9.89313" fill="#5B8174"/>
<rect x="33.5085" width="3.28856" height="9.89313" fill="#5B8174"/>
<rect x="28.3928" width="3.28856" height="9.89313" fill="#5B8174"/>
<rect x="125.588" width="3.28856" height="9.89313" fill="#5B8174"/>
<rect x="140.935" width="3.28856" height="9.89313" fill="#5B8174"/>
<rect x="135.819" width="3.28856" height="9.89313" fill="#5B8174"/>
<rect x="130.704" width="3.28856" height="9.89313" fill="#5B8174"/>
<rect x="166.512" width="3.28856" height="9.89313" fill="#5B8174"/>
<rect x="181.859" width="3.28856" height="9.89313" fill="#5B8174"/>
<rect x="176.744" width="3.28856" height="9.89313" fill="#5B8174"/>
<rect x="171.628" width="3.28856" height="9.89313" fill="#5B8174"/>
<rect x="146.05" width="3.28856" height="9.89313" fill="#5B8174"/>
<rect x="161.397" width="3.28856" height="9.89313" fill="#5B8174"/>
<rect x="156.281" width="3.28856" height="9.89313" fill="#5B8174"/>
<rect x="151.166" width="3.28856" height="9.89313" fill="#5B8174"/>
<rect x="186.975" width="3.28856" height="9.89313" fill="#5B8174"/>
<rect x="202.321" width="3.28856" height="9.89313" fill="#5B8174"/>
<rect x="197.206" width="3.28856" height="9.89313" fill="#5B8174"/>
<rect x="192.09" width="3.28856" height="9.89313" fill="#5B8174"/>
<rect x="227.899" width="3.28856" height="9.89313" fill="#5B8174"/>
<rect x="243.246" width="3.28856" height="9.89313" fill="#5B8174"/>
<rect x="238.13" width="3.28856" height="9.89313" fill="#5B8174"/>
<rect x="233.015" width="3.28856" height="9.89313" fill="#5B8174"/>
<rect x="207.437" width="3.28856" height="9.89313" fill="#5B8174"/>
<rect x="222.783" width="3.28856" height="9.89313" fill="#5B8174"/>
<rect x="217.668" width="3.28856" height="9.89313" fill="#5B8174"/>
<rect x="212.552" width="3.28856" height="9.89313" fill="#5B8174"/>
<rect x="248.361" width="3.28856" height="9.89313" fill="#5B8174"/>
<rect x="263.708" width="3.28856" height="9.89313" fill="#5B8174"/>
<rect x="258.592" width="3.28856" height="9.89313" fill="#5B8174"/>
<rect x="253.477" width="3.28856" height="9.89313" fill="#5B8174"/>
<rect x="289.285" width="3.28856" height="9.89313" fill="#5B8174"/>
<rect x="304.632" width="3.28856" height="9.89313" fill="#5B8174"/>
<rect x="299.517" width="3.28856" height="9.89313" fill="#5B8174"/>
<rect x="294.401" width="3.28856" height="9.89313" fill="#5B8174"/>
<rect x="268.823" width="3.28856" height="9.89313" fill="#5B8174"/>
<rect x="284.17" width="3.28856" height="9.89313" fill="#5B8174"/>
<rect x="279.054" width="3.28856" height="9.89313" fill="#5B8174"/>
<rect x="273.939" width="3.28856" height="9.89313" fill="#5B8174"/>
<rect x="309.748" width="3.28856" height="9.89313" fill="#5B8174"/>
<rect x="325.094" width="3.28856" height="9.89313" fill="#5B8174"/>
<rect x="319.979" width="3.28856" height="9.89313" fill="#5B8174"/>
<rect x="314.863" width="3.28856" height="9.89313" fill="#5B8174"/>
<rect x="350.672" width="3.28856" height="9.89313" fill="#5B8174"/>
<rect x="366.019" width="3.28856" height="9.89313" fill="#5B8174"/>
<rect x="360.903" width="3.28856" height="9.89313" fill="#5B8174"/>
<rect x="355.788" width="3.28856" height="9.89313" fill="#5B8174"/>
<rect x="330.21" width="3.28856" height="9.89313" fill="#5B8174"/>
<rect x="345.556" width="3.28856" height="9.89313" fill="#5B8174"/>
<rect x="340.441" width="3.28856" height="9.89313" fill="#5B8174"/>
<rect x="335.325" width="3.28856" height="9.89313" fill="#5B8174"/>
<rect x="371.134" width="3.28856" height="9.89313" fill="#5B8174"/>
<rect x="386.481" width="3.28856" height="9.89313" fill="#5B8174"/>
<rect x="381.365" width="3.28856" height="9.89313" fill="#5B8174"/>
<rect x="376.25" width="3.28856" height="9.89313" fill="#5B8174"/>
<rect x="391.596" width="3.28856" height="9.89313" fill="#5B8174"/>
<rect x="64.2017" width="3.28856" height="9.89313" fill="#5B8174"/>
<rect x="79.5483" width="3.28856" height="9.89313" fill="#5B8174"/>
<rect x="74.4329" width="3.28856" height="9.89313" fill="#5B8174"/>
<rect x="69.3171" width="3.28856" height="9.89313" fill="#5B8174"/>
<rect x="105.126" width="3.28856" height="9.89313" fill="#5B8174"/>
<rect x="120.473" width="3.28856" height="9.89313" fill="#5B8174"/>
<rect x="115.357" width="3.28856" height="9.89313" fill="#5B8174"/>
<rect x="110.241" width="3.28856" height="9.89313" fill="#5B8174"/>
<rect x="84.6638" width="3.28856" height="9.89313" fill="#5B8174"/>
<rect x="100.01" width="3.28856" height="9.89313" fill="#5B8174"/>
<rect x="94.895" width="3.28856" height="9.89313" fill="#5B8174"/>
<rect x="89.7793" width="3.28856" height="9.89313" fill="#5B8174"/>
</svg>
