<svg width="35" height="35" viewBox="0 0 35 35" fill="none" xmlns="http://www.w3.org/2000/svg">
<path d="M26.25 0H8.75C7.78354 0 7 0.783467 7 1.75V33.25C7 34.2165 7.78347 35 8.75 35H26.25C27.2165 35 28 34.2165 28 33.25V1.75C28 0.783467 27.2165 0 26.25 0ZM26.8333 4.66669H13.4167C13.0945 4.66669 12.8334 4.92782 12.8334 5.25C12.8334 5.57218 13.0945 5.83331 13.4167 5.83331H26.8334V28.5833H25.0834C24.7612 28.5833 24.5001 28.8444 24.5001 29.1666C24.5001 29.4888 24.7612 29.7499 25.0834 29.7499H26.8334V33.2499C26.8334 33.5721 26.5722 33.8332 26.2501 33.8332H8.75C8.42782 33.8332 8.16669 33.5721 8.16669 33.2499V29.7499H21.5834C21.9056 29.7499 22.1667 29.4888 22.1667 29.1666C22.1667 28.8444 21.9056 28.5833 21.5834 28.5833H8.16669V5.83331H9.91669C10.2389 5.83331 10.5 5.57218 10.5 5.25C10.5 4.92782 10.2389 4.66669 9.91669 4.66669H8.16669V1.75C8.16669 1.42782 8.42782 1.16669 8.75 1.16669H26.25C26.5722 1.16669 26.8333 1.42782 26.8333 1.75V4.66669Z" fill="black"/>
<path d="M18.0834 31.5H16.9167C16.5945 31.5 16.3334 31.7611 16.3334 32.0833C16.3334 32.4055 16.5945 32.6666 16.9167 32.6666H18.0834C18.4056 32.6666 18.6667 32.4055 18.6667 32.0833C18.6667 31.7611 18.4056 31.5 18.0834 31.5Z" fill="black"/>
</svg>
