<svg width="148" height="36" viewBox="0 0 148 36" fill="none" xmlns="http://www.w3.org/2000/svg">
<path d="M25.32 11.68L23.84 18.6H29.12V22.6H23L21.4 30H17.04L18.64 22.6H10.8L9.2 30H4.84L6.44 22.6H0.24V18.6H7.28L8.76 11.68H2.6V7.68H9.6L11.16 0.4H15.52L13.96 7.68H21.8L23.36 0.4H27.72L26.16 7.68H31.48V11.68H25.32ZM20.96 11.68H13.12L11.64 18.6H19.48L20.96 11.68ZM40.3228 7.32C41.1228 7.32 41.8028 7.6 42.3628 8.16C42.9228 8.72 43.2028 9.41333 43.2028 10.24C43.2028 11.0667 42.9228 11.76 42.3628 12.32C41.8028 12.88 41.1228 13.16 40.3228 13.16C39.4961 13.16 38.8028 12.88 38.2428 12.32C37.6828 11.76 37.4028 11.0667 37.4028 10.24C37.4028 9.41333 37.6828 8.72 38.2428 8.16C38.8028 7.6 39.4961 7.32 40.3228 7.32ZM38.2828 16H42.0828L42.6028 35.4H37.7628L38.2828 16ZM71.9344 2.2V30H67.3744V17.84H54.2944V30H49.7344V2.2H54.2944V14.12H67.3744V2.2H71.9344ZM87.4975 30.36C85.4175 30.36 83.5375 29.8933 81.8575 28.96C80.1775 28 78.8575 26.6667 77.8975 24.96C76.9375 23.2267 76.4575 21.2267 76.4575 18.96C76.4575 16.72 76.9508 14.7333 77.9375 13C78.9242 11.2667 80.2708 9.93333 81.9775 9C83.6842 8.06667 85.5908 7.6 87.6975 7.6C89.8042 7.6 91.7108 8.06667 93.4175 9C95.1242 9.93333 96.4708 11.2667 97.4575 13C98.4442 14.7333 98.9375 16.72 98.9375 18.96C98.9375 21.2 98.4308 23.1867 97.4175 24.92C96.4042 26.6533 95.0175 28 93.2575 28.96C91.5242 29.8933 89.6042 30.36 87.4975 30.36ZM87.4975 26.4C88.6708 26.4 89.7642 26.12 90.7775 25.56C91.8175 25 92.6575 24.16 93.2975 23.04C93.9375 21.92 94.2575 20.56 94.2575 18.96C94.2575 17.36 93.9508 16.0133 93.3375 14.92C92.7242 13.8 91.9108 12.96 90.8975 12.4C89.8842 11.84 88.7908 11.56 87.6175 11.56C86.4442 11.56 85.3508 11.84 84.3375 12.4C83.3508 12.96 82.5642 13.8 81.9775 14.92C81.3908 16.0133 81.0975 17.36 81.0975 18.96C81.0975 21.3333 81.6975 23.1733 82.8975 24.48C84.1242 25.76 85.6575 26.4 87.4975 26.4ZM108.005 0.4V30H103.445V0.4H108.005ZM112.472 18.88C112.472 16.6667 112.926 14.7067 113.832 13C114.766 11.2933 116.019 9.97333 117.592 9.04C119.192 8.08 120.952 7.6 122.872 7.6C124.606 7.6 126.112 7.94667 127.392 8.64C128.699 9.30667 129.739 10.1467 130.512 11.16V7.96H135.112V30H130.512V26.72C129.739 27.76 128.686 28.6267 127.352 29.32C126.019 30.0133 124.499 30.36 122.792 30.36C120.899 30.36 119.166 29.88 117.592 28.92C116.019 27.9333 114.766 26.5733 113.832 24.84C112.926 23.08 112.472 21.0933 112.472 18.88ZM130.512 18.96C130.512 17.44 130.192 16.12 129.552 15C128.939 13.88 128.126 13.0267 127.112 12.44C126.099 11.8533 125.006 11.56 123.832 11.56C122.659 11.56 121.566 11.8533 120.552 12.44C119.539 13 118.712 13.84 118.072 14.96C117.459 16.0533 117.152 17.36 117.152 18.88C117.152 20.4 117.459 21.7333 118.072 22.88C118.712 24.0267 119.539 24.9067 120.552 25.52C121.592 26.1067 122.686 26.4 123.832 26.4C125.006 26.4 126.099 26.1067 127.112 25.52C128.126 24.9333 128.939 24.08 129.552 22.96C130.192 21.8133 130.512 20.48 130.512 18.96ZM146.822 2.2L146.302 21.6H142.502L141.982 2.2H146.822ZM144.542 30.28C143.715 30.28 143.022 30 142.462 29.44C141.902 28.88 141.622 28.1867 141.622 27.36C141.622 26.5333 141.902 25.84 142.462 25.28C143.022 24.72 143.715 24.44 144.542 24.44C145.342 24.44 146.022 24.72 146.582 25.28C147.142 25.84 147.422 26.5333 147.422 27.36C147.422 28.1867 147.142 28.88 146.582 29.44C146.022 30 145.342 30.28 144.542 30.28Z" fill="#213337"/>
</svg>
