<svg width="32" height="46" viewBox="0 0 32 46" fill="none" xmlns="http://www.w3.org/2000/svg">
<path d="M14.4763 0C9.84975 0.00536851 6.10066 3.77817 6.09533 8.43331V23.7668H0.761681C0.34114 23.7668 0 24.11 0 24.5332V29.1334C0 29.5569 0.34114 29.9001 0.761681 29.9001H3.17853L6.10882 45.3776C6.17755 45.7388 6.4917 46 6.85701 46H22.0953C22.4606 46 22.7748 45.7388 22.8435 45.3776L25.7738 29.9001H28.1903C28.6112 29.9001 28.9523 29.5569 28.9523 29.1334V24.5332C28.9523 24.11 28.6112 23.7668 28.1903 23.7668H22.857V21.4668H26.6667C29.6105 21.463 31.9962 19.0623 32 16.0999V11.5C32 9.38291 30.2943 7.66656 28.1903 7.66656C26.0864 7.66656 24.381 9.38291 24.381 11.5V13.7999H22.857V8.43331C22.8517 3.77817 19.1026 0.00536851 14.4763 0V0ZM15.238 23.7668V1.57866C16.0339 1.66898 16.8078 1.90014 17.5237 2.26173V23.7668H15.238ZM13.7143 23.7668H11.4287V2.26173C12.1445 1.90014 12.9184 1.66898 13.7143 1.57866V23.7668ZM7.619 8.43331C7.61994 6.47443 8.45161 4.60872 9.90467 3.30511V23.7668H7.619V8.43331ZM21.4651 44.4668H7.48719L4.72983 29.9001H24.2225L21.4651 44.4668ZM27.4287 28.3666H1.52368V25.2999H27.4287V28.3666ZM19.0477 23.7668V3.30511C20.5007 4.60872 21.3324 6.47443 21.3333 8.43331V23.7668H19.0477ZM30.4763 11.5V16.0999C30.4738 18.216 28.7697 19.9308 26.6667 19.9333H22.8573V18.3998H26.6667C27.9292 18.3998 28.9527 17.3703 28.9527 16.0999V9.34122C29.8625 9.66491 30.4722 10.5289 30.4763 11.5ZM25.143 15.3334C25.5638 15.3334 25.9047 14.9902 25.9047 14.5667V11.5C25.9088 10.5289 26.5185 9.66491 27.4287 9.34122V16.1002C27.4287 16.5234 27.0875 16.8666 26.6667 16.8666H22.8573V15.3334H25.143Z" fill="black"/>
</svg>
