<svg width="33" height="34" viewBox="0 0 33 34" fill="none" xmlns="http://www.w3.org/2000/svg">
<g clip-path="url(#clip0)">
<path d="M0.104466 3.11894L2.3053 7.08688C2.37954 7.22096 2.5038 7.31797 2.6491 7.35551L4.70237 7.88438L11.7446 15.1401L12.5228 14.3386L5.37027 6.96958C5.29988 6.89683 5.21161 6.84529 5.11497 6.82034L3.14205 6.31036L1.26826 2.93005L2.87475 1.27488L6.15699 3.20731L6.65221 5.24002C6.6762 5.33983 6.72644 5.431 6.79683 5.50353L13.9493 12.8728L14.7272 12.0711L7.68495 4.81538L7.17163 2.70106C7.13519 2.55112 7.04104 2.42287 6.9109 2.34615L3.05944 0.0788526C2.84465 -0.0470693 2.57441 -0.00975911 2.39923 0.170029L0.19862 2.43756C0.0216293 2.61688 -0.0168469 2.89577 0.104466 3.11894Z" fill="black"/>
<path d="M22.9785 11.1718L10.8746 23.6428L10.0964 22.8411L22.2006 10.3704L22.9785 11.1718Z" fill="black"/>
<path d="M8.75608 24.084C8.6565 23.9133 8.4777 23.8091 8.28441 23.8091H4.98338C4.79032 23.8091 4.61129 23.9133 4.51194 24.084L2.86131 26.9182C2.75652 27.0977 2.75652 27.3223 2.86131 27.5021L4.51194 30.3363C4.61129 30.5067 4.79032 30.6112 4.98338 30.6112H8.28441C8.4777 30.6112 8.6565 30.5067 8.75608 30.3363L10.4065 27.5021C10.5113 27.3223 10.5113 27.0977 10.4065 26.9182L8.75608 24.084ZM7.97321 29.4774H5.29481L3.9744 27.2101L5.29481 24.9426H7.97321L9.29362 27.2101L7.97321 29.4774Z" fill="black"/>
<path d="M26.4404 13.6056C30.0741 13.6182 33.03 10.5933 33.0422 6.84944C33.0441 6.27953 32.9762 5.71195 32.8401 5.15952C32.7668 4.85568 32.4683 4.67076 32.1734 4.74631C32.0765 4.77126 31.9882 4.8228 31.9176 4.89532L28.4928 8.4216L25.7755 7.48861L24.8692 4.68965L28.2941 1.16033C28.5088 0.938805 28.5086 0.579928 28.2936 0.358631C28.2228 0.285643 28.1336 0.233875 28.036 0.209157C24.5121 -0.710306 20.9322 1.4875 20.0398 5.11802C19.9042 5.66881 19.8365 6.23499 19.8384 6.80327C19.8397 7.24959 19.8843 7.69452 19.9721 8.13151L7.92297 20.5456C7.49883 20.4553 7.06699 20.4094 6.63402 20.4077C2.98761 20.4077 0.0317383 23.4532 0.0317383 27.2101C0.0317383 30.9668 2.98761 34.0122 6.63402 34.0122C10.2802 34.0122 13.2361 30.9668 13.2361 27.2101C13.2347 26.7638 13.1899 26.3188 13.1023 25.8818L15.9869 22.9099L17.2485 24.2097C17.4635 24.4309 17.8116 24.4309 18.0266 24.2097L18.3016 23.9261C18.5428 23.6791 18.9328 23.6791 19.1741 23.9261C19.4151 24.1737 19.4156 24.5758 19.1752 24.8241C19.175 24.8243 19.1745 24.8248 19.1741 24.8253L18.8991 25.1086C18.6843 25.3299 18.6843 25.6888 18.8991 25.9101L25.4622 32.6721C27.1884 34.4669 29.9999 34.48 31.742 32.7015C33.4838 30.9229 33.4965 28.026 31.7703 26.2314C31.761 26.2216 31.7515 26.2118 31.742 26.202L25.1788 19.4402C24.9641 19.2189 24.6157 19.2189 24.401 19.4402L24.126 19.7236C23.8845 19.9707 23.4947 19.9707 23.2532 19.7236C23.0124 19.4759 23.0117 19.0739 23.2521 18.8258C23.2526 18.8253 23.253 18.8251 23.2532 18.8246L23.5284 18.5411C23.7432 18.3198 23.7432 17.9609 23.5284 17.7396L22.2669 16.4398L25.1515 13.4678C25.5756 13.5581 26.0074 13.6042 26.4404 13.6056ZM28.6021 32.8787C28.2024 32.878 27.8061 32.8036 27.432 32.6588L31.7288 28.2315C32.3773 30.0086 31.5048 31.9907 29.7799 32.6588C29.4035 32.8045 29.0045 32.8791 28.6021 32.8787ZM22.3692 18.146C21.7599 18.8948 21.8554 20.0109 22.5822 20.6384C23.2209 21.1899 24.1518 21.1894 24.7898 20.6367L30.9641 27.0037C31.0311 27.073 31.0938 27.146 31.1544 27.2201L26.4504 32.0667C26.3782 32.0045 26.3073 31.9399 26.2401 31.8706L20.0611 25.5038C20.6703 24.7551 20.5748 23.639 19.8481 23.0115C19.2094 22.4598 18.2783 22.4605 17.6402 23.0129L16.76 22.1061L21.4888 17.2413L22.3692 18.146ZM24.5908 12.4448L12.1099 25.3014C11.9729 25.4423 11.9179 25.6468 11.9646 25.8401C12.7194 28.8942 10.9282 32.0005 7.96371 32.7779C4.99946 33.5556 1.98452 31.7102 1.2297 28.6559C0.475119 25.6018 2.2663 22.4955 5.23077 21.7178C6.12749 21.4827 7.06699 21.4827 7.96371 21.7178C8.15134 21.7651 8.34938 21.7085 8.48653 21.5683L20.9646 8.71146C21.1013 8.57061 21.1563 8.3661 21.1092 8.17302C20.3596 5.15463 22.1268 2.08166 25.0564 1.30911C25.61 1.16337 26.1826 1.1074 26.753 1.14401L23.8507 4.13536C23.7034 4.28693 23.6518 4.51149 23.7177 4.71507L24.8179 8.11636C24.8729 8.28542 25.0019 8.41834 25.1662 8.47454L28.4674 9.6083C28.6648 9.67616 28.8827 9.62322 29.0301 9.47165L31.9323 6.48147C31.9389 6.58967 31.9423 6.6967 31.9423 6.80327C31.9577 9.91797 29.5196 12.4558 26.4965 12.4719C26.0292 12.4742 25.5634 12.415 25.1107 12.2956C24.9231 12.2473 24.7246 12.3037 24.5879 12.4446H24.5908V12.4448Z" fill="black"/>
<path d="M28.4807 28.5097L27.7026 29.3114L22.2009 23.643L22.9788 22.8413L28.4807 28.5097Z" fill="black"/>
</g>
<defs>
<clipPath id="clip0">
<rect width="33" height="34" fill="white"/>
</clipPath>
</defs>
</svg>
