<svg width="48" height="48" viewBox="0 0 48 48" fill="none" xmlns="http://www.w3.org/2000/svg">
<path d="M37.7792 25.4959C37.4136 25.1295 36.8193 25.1295 36.4538 25.4959C36.0873 25.8615 36.0873 26.4557 36.4538 26.8213C36.8193 27.1877 37.4136 27.1877 37.7792 26.8213C38.1456 26.4557 38.1456 25.8615 37.7792 25.4959Z" fill="black"/>
<path d="M18.3707 13.9739C17.8533 13.9739 17.4333 14.3938 17.4333 14.9113C17.4333 15.4287 17.8533 15.8486 18.3707 15.8486C18.8881 15.8486 19.308 15.4287 19.308 14.9113C19.3079 14.3938 18.888 13.9739 18.3707 13.9739Z" fill="black"/>
<path d="M12.4659 13.9739C11.9485 13.9739 11.5286 14.3938 11.5286 14.9113C11.5286 15.4287 11.9485 15.8486 12.4659 15.8486C12.9833 15.8486 13.4032 15.4287 13.4032 14.9113C13.4031 14.3938 12.9832 13.9739 12.4659 13.9739Z" fill="black"/>
<path d="M6.8421 13.9739C6.32469 13.9739 5.90479 14.3938 5.90479 14.9113C5.90479 15.4287 6.32469 15.8486 6.8421 15.8486C7.35951 15.8486 7.77941 15.4287 7.77941 14.9113C7.77932 14.3938 7.35941 13.9739 6.8421 13.9739Z" fill="black"/>
<path d="M45.1769 10.2253H43.4776C44.959 8.33138 46.1293 6.61078 46.8996 5.18644C47.6863 3.732 48.6013 1.66743 47.4705 0.536615C46.3864 -0.547512 44.2431 0.0122702 40.7256 2.2979C37.8515 4.1655 34.4311 6.97304 31.064 10.2254H2.81185C1.26141 10.2253 0 11.4867 0 13.0372V45.1859C0 46.7363 1.26141 47.9977 2.81185 47.9977H45.1769C46.7273 47.9977 47.9888 46.7363 47.9888 45.1859V13.0372C47.9888 11.4867 46.7273 10.2253 45.1769 10.2253ZM31.25 12.6708C31.5296 12.3912 31.8149 12.1096 32.098 11.834C35.2758 8.73873 38.5466 6.01341 41.3077 4.15997C44.3276 2.13299 45.7405 1.82624 46.1256 1.87949C46.2034 2.45174 45.4319 4.95122 40.9116 10.4257C40.8078 10.5072 40.7217 10.6098 40.6598 10.7276C39.032 12.6774 37.2062 14.6679 35.2267 16.6473C34.771 17.103 34.3118 17.5529 33.8617 17.9847C33.0878 18.7275 32.31 19.4478 31.5398 20.1356C31.0343 19.3838 30.4565 18.6786 29.8104 18.0318C29.1837 17.4051 28.5004 16.8421 27.7725 16.3468C28.8641 15.124 30.0296 13.891 31.25 12.6708ZM22.0439 23.8219C22.8477 22.4855 23.9598 20.9254 25.3079 19.248C25.6959 18.7653 26.1061 18.2702 26.5309 17.7706C27.2325 18.229 27.8877 18.7602 28.4844 19.3571C29.1008 19.974 29.6463 20.6518 30.1142 21.3777C27.8801 23.2761 25.782 24.8283 24.0548 25.8647C23.8321 25.4227 23.5393 25.0159 23.1827 24.6595C22.845 24.3216 22.4608 24.0404 22.0439 23.8219ZM21.8573 29.9614C21.1335 30.6853 18.2098 31.5404 15.7649 32.0772C16.3018 29.6325 17.1568 26.7088 17.8807 25.9848C18.4153 25.4503 19.1264 25.1609 19.8634 25.1609C20.0692 25.1609 20.2772 25.1835 20.4838 25.2296C21.0035 25.3448 21.4784 25.606 21.8572 25.9849C22.251 26.3788 22.5164 26.8733 22.6245 27.4147C22.6245 27.4155 22.6247 27.4162 22.6248 27.4168C22.8118 28.3426 22.5248 29.2939 21.8573 29.9614ZM1.87454 13.0372C1.87454 12.5203 2.295 12.0999 2.81185 12.0999H29.1791C27.9293 13.3776 26.7398 14.6644 25.6354 15.9358C25.6336 15.9378 25.6319 15.9399 25.6301 15.9419C25.1088 16.5424 24.6071 17.1396 24.1312 17.7235H1.87454V13.0372ZM46.1142 45.1859C46.1142 45.7027 45.6937 46.1232 45.1769 46.1232H2.81185C2.295 46.1232 1.87454 45.7027 1.87454 45.1859V19.5981H22.6616C21.6514 20.9434 20.81 22.1963 20.1777 23.2987C18.8384 23.2077 17.5234 23.6911 16.5551 24.6594C14.965 26.2496 13.8514 31.9756 13.6442 33.1072C13.5888 33.41 13.6857 33.7209 13.9034 33.9387C14.0809 34.1161 14.3199 34.2132 14.5662 34.2132C14.6222 34.2132 14.6787 34.2081 14.7349 34.1979C15.8666 33.9908 21.5927 32.8772 23.1827 31.2871C24.1268 30.343 24.612 29.0588 24.5479 27.7488C26.6074 26.574 29.2022 24.6569 31.9358 22.2846C31.9375 22.2831 31.9393 22.2817 31.941 22.2802C32.9123 21.4369 33.9017 20.5355 34.8861 19.5982H46.1142V45.1859ZM46.1142 17.7236H36.799C38.6654 15.8443 40.3968 13.9559 41.9552 12.0999H45.177C45.6938 12.0999 46.1143 12.5203 46.1143 13.0372V17.7236H46.1142Z" fill="black"/>
<path d="M37.1162 28.9484C36.5864 28.9484 36.1568 29.378 36.1568 29.9078V39.2805C36.1568 39.7852 35.7462 40.1958 35.2415 40.1958C34.9974 40.1958 34.7675 40.1005 34.5947 39.9276C34.4217 39.7546 34.3264 39.5248 34.3264 39.2807V37.4062C34.3264 35.8436 33.0552 34.5723 31.4926 34.5723C30.7359 34.5723 30.0243 34.8672 29.4889 35.4026C28.9534 35.938 28.6587 36.6495 28.6587 37.4062C28.6587 37.6503 28.5633 37.8802 28.3905 38.0531C28.2175 38.226 27.9877 38.3213 27.7436 38.3213C27.4995 38.3213 27.2696 38.2259 27.0967 38.0531C26.9237 37.8801 26.8285 37.6503 26.8285 37.4062C26.8285 36.6495 26.5337 35.938 25.9982 35.4026C25.4628 34.8671 24.7513 34.5723 23.9946 34.5723C23.238 34.5723 22.5264 34.8672 21.991 35.4026C21.4555 35.938 21.1607 36.6495 21.1607 37.4062C21.1607 37.6503 21.0654 37.8802 20.8925 38.0531C20.7217 38.2239 20.4957 38.3188 20.255 38.3212C20.2268 38.312 20.0248 38.2329 19.6973 37.7806C19.4246 37.4038 19.2474 37.0157 19.2465 37.0138C19.0297 36.5303 18.462 36.314 17.9788 36.5305C17.4952 36.7471 17.2788 37.3147 17.4955 37.7982C17.5211 37.8553 17.757 38.3726 18.1432 38.9058C18.784 39.7909 19.4914 40.2398 20.2455 40.2398C21.0022 40.2398 21.7138 39.9449 22.2492 39.4095C22.7847 38.8741 23.0794 38.1626 23.0794 37.4059C23.0794 37.1618 23.1748 36.9319 23.3476 36.759C23.5206 36.5861 23.7504 36.4908 23.9945 36.4908C24.2386 36.4908 24.4685 36.5862 24.6414 36.759C24.8144 36.932 24.9096 37.1618 24.9096 37.4059C24.9096 38.1626 25.2045 38.8741 25.7399 39.4095C26.2753 39.945 26.9868 40.2398 27.7435 40.2398C28.5002 40.2398 29.2117 39.9449 29.7471 39.4095C30.2826 38.8741 30.5774 38.1626 30.5774 37.4059C30.5774 37.1618 30.6727 36.9319 30.8456 36.759C31.0186 36.5861 31.2483 36.4908 31.4925 36.4908C31.9971 36.4908 32.4078 36.9014 32.4078 37.4061V39.2806C32.4078 40.0373 32.7026 40.7489 33.238 41.2843C33.7734 41.8198 34.485 42.1145 35.2416 42.1145C36.8043 42.1145 38.0755 40.8433 38.0755 39.2806V29.9079C38.0755 29.3779 37.646 28.9484 37.1162 28.9484Z" fill="black"/>
</svg>
