<svg width="64" height="43" viewBox="0 0 64 43" fill="none" xmlns="http://www.w3.org/2000/svg">
<path d="M19.8308 0.933354C20.0783 0.421303 20.7303 0.143229 21.2684 0.314579L23.7978 1.12005C24.306 1.28188 24.5215 1.79189 24.2859 2.27496L5.08675 41.6267C4.90713 41.9949 4.50684 42.2592 4.07553 42.2741C2.65594 42.3229 -0.328406 42.282 0.361202 41.0188C1.17644 39.5254 16.9467 6.90135 19.8308 0.933354Z" fill="#213337"/>
<path d="M20.2873 3.18655C20.1228 2.65747 20.4333 2.15114 20.9797 2.05747L23.7167 1.58829C24.2616 1.49488 24.8343 1.84741 24.9955 2.3755L31.1852 22.647C31.3458 23.173 31.0377 23.675 30.4958 23.7704L27.8699 24.2327C27.326 24.3285 26.7521 23.9786 26.5882 23.4512L20.2873 3.18655Z" fill="#213337"/>
<path d="M37.8772 16.9771C37.8772 16.4228 38.3281 15.9742 38.8824 15.9771L41.7758 15.992C42.3279 15.9949 42.7732 16.4445 42.7707 16.9965L42.6574 42.0046C42.6549 42.5552 42.208 43.0001 41.6574 43.0001H38.8772C38.3249 43.0001 37.8772 42.5524 37.8772 42.0001V16.9771Z" fill="#213337"/>
<path d="M37.8772 1.00283C37.8772 0.449633 38.3263 0.001541 38.8795 0.0028376L41.7675 0.00960657C42.3228 0.010908 42.7707 0.464331 42.7652 1.01956L42.6628 11.296C42.6573 11.8444 42.2112 12.286 41.6628 12.286H38.8772C38.3249 12.286 37.8772 11.8383 37.8772 11.286V1.00283Z" fill="#213337"/>
<path d="M42.1471 19.6575C41.5931 19.6575 41.1446 19.207 41.1472 18.6529L41.1594 15.9718L58.1071 16.0587C58.6573 16.0615 59.1019 16.5084 59.1019 17.0587V18.6575C59.1019 19.2098 58.6542 19.6575 58.1019 19.6575H42.1471Z" fill="#213337"/>
<path d="M42.1484 3.68628C41.5938 3.68628 41.1452 3.23502 41.1484 2.68048L41.1639 0.000616312L63.004 0.0886099C63.5547 0.0908289 63.9999 0.53789 63.9999 1.0886V2.68628C63.9999 3.23856 63.5522 3.68628 62.9999 3.68628L42.1484 3.68628Z" fill="#213337"/>
</svg>
