<svg width="40" height="40" viewBox="0 0 40 40" fill="none" xmlns="http://www.w3.org/2000/svg">
<path d="M26.6515 0.0213851C19.3054 0.00793661 13.3395 5.95215 13.3258 13.298C13.3208 16.1277 14.218 18.8854 15.8876 21.17L13.9919 23.0657L13.7967 22.8706C13.5365 22.6104 13.1147 22.6104 12.8545 22.8706L0.19514 35.53C-0.0650466 35.7901 -0.0650466 36.212 0.19514 36.4722L3.52651 39.8035C3.7867 40.0637 4.20854 40.0637 4.46873 39.8035L17.1281 27.1439C17.3883 26.8837 17.3883 26.4621 17.1281 26.2019L16.933 26.0065L18.8286 24.1111C24.7778 28.4363 33.1068 27.1197 37.432 21.1706C41.7569 15.2214 40.4406 6.89244 34.4914 2.56726C32.2132 0.910904 29.4683 0.0197383 26.6515 0.0213851ZM3.99776 38.3904L1.60832 36.0012L13.3258 24.2838L15.7149 26.6729L3.99776 38.3904ZM15.9908 25.0646L14.9341 24.0079L16.7332 22.2121C17.0655 22.5838 17.4182 22.9364 17.7898 23.2691L15.9908 25.0646ZM26.6515 25.3404C20.0278 25.3404 14.6583 19.9709 14.6583 13.3471C14.6583 6.72338 20.0278 1.35388 26.6515 1.35388C33.2753 1.35388 38.6448 6.72365 38.6448 13.3471C38.6371 19.9676 33.272 25.3327 26.6515 25.3404Z" fill="black"/>
<path d="M26.6514 3.35266C21.1317 3.35266 16.657 7.82743 16.657 13.3471C16.657 18.8667 21.1317 23.3415 26.6514 23.3415C32.171 23.3415 36.6458 18.8667 36.6458 13.3471C36.6395 7.8299 32.1685 3.35897 26.6514 3.35266ZM26.6514 22.009C21.8676 22.009 17.9895 18.1309 17.9895 13.3471C17.9895 8.56325 21.8676 4.68543 26.6514 4.68543C31.4352 4.68543 35.313 8.56325 35.313 13.3471C35.3075 18.1287 31.4327 22.0035 26.6514 22.009Z" fill="black"/>
<path d="M30.4541 10.4868L23.7913 17.1495L22.8491 16.2073L29.5119 9.54456L30.4541 10.4868Z" fill="black"/>
<path d="M27.1228 9.82063L23.1251 13.8184L22.1829 12.8762L26.1803 8.87842L27.1228 9.82063Z" fill="black"/>
<path d="M31.1209 13.8183L27.1231 17.8161L26.1809 16.8739L30.1784 12.8761L31.1209 13.8183Z" fill="black"/>
</svg>
