<svg width="35" height="35" viewBox="0 0 35 35" fill="none" xmlns="http://www.w3.org/2000/svg">
<path d="M34.993 13.3802C34.9893 13.34 34.9813 13.3003 34.969 13.2618C34.961 13.2274 34.9499 13.1939 34.9358 13.1615C34.9195 13.1298 34.8999 13.0999 34.8775 13.0722C34.855 13.0393 34.829 13.009 34.7999 12.9817C34.7905 12.9736 34.7865 12.9625 34.7766 12.9543L29.1664 8.59715V4.0813C29.1664 3.11477 28.3828 2.33118 27.4163 2.33118H21.0944L18.5631 0.365781C17.9378 -0.121927 17.0609 -0.121927 16.4356 0.365781L13.9038 2.33118H7.58185C6.61534 2.33118 5.83176 3.1147 5.83176 4.0813V8.59721L0.223341 12.9544C0.213429 12.9626 0.209327 12.9737 0.20003 12.9818C0.170975 13.009 0.144929 13.0394 0.122438 13.0723C0.100015 13.0999 0.0804631 13.1298 0.0641244 13.1615C0.0499732 13.1939 0.0388985 13.2275 0.0309 13.2619C0.0187314 13.2998 0.010733 13.3389 0.00697301 13.3786C0.00697301 13.3908 0 13.4014 0 13.4136V33.2499C0.000820354 33.621 0.120866 33.9819 0.34243 34.2795C0.345916 34.2848 0.346531 34.2912 0.350565 34.2959C0.354666 34.3005 0.363417 34.3058 0.369228 34.3122C0.696959 34.7434 1.20667 34.9977 1.74831 35H33.2499C33.7937 34.9984 34.3055 34.7429 34.6336 34.3093C34.6383 34.3035 34.6453 34.3017 34.6494 34.2959C34.6535 34.2901 34.654 34.2848 34.6576 34.2796C34.8791 33.9819 34.9992 33.621 35 33.25V13.4152C34.9999 13.403 34.9936 13.3925 34.993 13.3802ZM17.149 1.2863C17.3527 1.12442 17.6412 1.12442 17.845 1.2863L19.1908 2.33111H15.8073L17.149 1.2863ZM1.89529 33.8333L17.1491 21.9844C17.353 21.8228 17.6412 21.8228 17.845 21.9844L33.1029 33.8333H1.89529ZM33.8333 32.9238L18.5631 21.0638C17.9377 20.5765 17.061 20.5765 16.4356 21.0638L1.1649 32.9238V14.3037L10.7245 21.7271C10.9792 21.9246 11.3458 21.8783 11.5433 21.6236C11.7408 21.3688 11.6944 21.0023 11.4397 20.8048L1.72787 13.2635L5.83183 10.0742V14.5819C5.83183 14.9041 6.09304 15.1653 6.41517 15.1653C6.73736 15.1653 6.99851 14.9041 6.99851 14.5819V4.08123C6.99851 3.75903 7.25966 3.49788 7.58185 3.49788H27.4162C27.7384 3.49788 27.9995 3.75903 27.9995 4.08123V14.5819C27.9995 14.9041 28.2607 15.1653 28.5828 15.1653C28.905 15.1653 29.1662 14.9041 29.1662 14.5819V10.0742L33.2701 13.2635L23.5414 20.8182C23.3741 20.945 23.2877 21.1521 23.3155 21.3602C23.3432 21.5684 23.4807 21.7456 23.6755 21.8241C23.8703 21.9027 24.0922 21.8706 24.2566 21.7399L33.8331 14.3037V32.9238H33.8333Z" fill="#213337"/>
<path d="M24.4992 13.9981V11.6646C24.4992 7.79834 21.3651 4.66412 17.4989 4.66412C13.6327 4.66412 10.4985 7.79834 10.4985 11.6646C10.4985 15.5309 13.6327 18.6651 17.4989 18.6651C17.8211 18.6651 18.0822 18.4039 18.0822 18.0817C18.0822 17.7595 17.8211 17.4984 17.4989 17.4984C14.2771 17.4984 11.6653 14.8865 11.6653 11.6647C11.6653 8.44281 14.2771 5.83096 17.4989 5.83096C20.7207 5.83096 23.3325 8.44281 23.3325 11.6647V13.9981C23.3325 14.6425 22.8101 15.1649 22.1657 15.1649C21.5214 15.1649 20.999 14.6425 20.999 13.9981V11.6647C20.999 11.3425 20.7379 11.0813 20.4157 11.0813C20.0935 11.0813 19.8323 11.3425 19.8323 11.6647C19.8323 12.9534 18.7876 13.9981 17.4989 13.9981C16.2102 13.9981 15.1655 12.9534 15.1655 11.6647C15.1655 10.3759 16.2102 9.3312 17.4989 9.3312C17.8211 9.3312 18.0822 9.07005 18.0822 8.74785C18.0822 8.42565 17.8211 8.1645 17.4989 8.1645C15.9324 8.16101 14.5542 9.19884 14.1249 10.7054C13.6956 12.2121 14.3195 13.8205 15.6526 14.6433C16.9857 15.4661 18.7031 15.303 19.8574 14.2438C19.9844 15.4775 21.0567 16.3948 22.2952 16.3293C23.5337 16.2636 24.5031 15.2383 24.4992 13.9981Z" fill="#213337"/>
</svg>
