<svg width="48" height="48" viewBox="0 0 48 48" fill="none" xmlns="http://www.w3.org/2000/svg">
<path d="M6.42498 28.7857H18.8642L17.0653 33.5832H15.2205V35.1822H32.8116V33.5832H30.9669L29.1679 28.7854H41.6072C43.3736 28.7854 44.8056 27.3533 44.8056 25.587V3.19841C44.8056 1.43206 43.3736 0 41.6072 0H6.42498C4.65829 0 3.22656 1.43206 3.22656 3.19841V25.587C3.22656 27.3537 4.65829 28.7857 6.42498 28.7857ZM29.2588 33.5832H18.773L20.5723 28.7854H27.4599L29.2588 33.5832ZM43.2062 25.587C43.2062 26.4703 42.4905 27.1864 41.6072 27.1864H6.42498C5.54163 27.1864 4.8256 26.4703 4.8256 25.587V23.9879H43.2066V25.587H43.2062ZM4.8256 3.19841C4.8256 2.31507 5.54163 1.59904 6.42498 1.59904H41.6072C42.4905 1.59904 43.2062 2.31507 43.2062 3.19841V22.3886H4.8256V3.19841Z" fill="black"/>
<path d="M7.22473 36.7816C6.78306 36.7816 6.42505 37.1396 6.42505 37.5813V47.1762C6.42505 47.6179 6.78306 47.9759 7.22473 47.9759H29.6133C30.055 47.9759 30.413 47.6179 30.413 47.1762V37.5813C30.413 37.1396 30.055 36.7816 29.6133 36.7816H7.22473ZM28.8136 46.3769H8.02409V38.3807H28.8136V46.3769Z" fill="black"/>
<path d="M9.62354 43.1781H11.2226V44.7775H9.62354V43.1781Z" fill="black"/>
<path d="M25.6152 43.1781H27.2146V44.7775H25.6152V43.1781Z" fill="black"/>
<path d="M9.62354 39.98H11.2226V41.5791H9.62354V39.98Z" fill="black"/>
<path d="M12.8218 39.98H14.4208V41.5791H12.8218V39.98Z" fill="black"/>
<path d="M16.0203 39.98H17.6193V41.5791H16.0203V39.98Z" fill="black"/>
<path d="M19.2183 39.98H20.8176V41.5791H19.2183V39.98Z" fill="black"/>
<path d="M22.4167 39.98H24.0161V41.5791H22.4167V39.98Z" fill="black"/>
<path d="M25.6152 39.98H27.2146V41.5791H25.6152V39.98Z" fill="black"/>
<path d="M12.8218 43.1781H24.0161V44.7775H12.8218V43.1781Z" fill="black"/>
<path d="M33.6113 40.7794V43.9778C33.6113 46.1858 35.4011 47.9759 37.6091 47.9759C39.8171 47.9759 41.6072 46.1858 41.6072 43.9778V40.7794C41.6072 38.5714 39.8171 36.7816 37.6091 36.7816C35.4011 36.7816 33.6113 38.5714 33.6113 40.7794ZM40.0082 40.7794V43.9778C40.0082 45.3028 38.9341 46.3765 37.6091 46.3765C36.2844 46.3765 35.2104 45.3028 35.2104 43.9778V40.7794C35.2147 39.7666 35.8546 38.8655 36.8097 38.5279V40.7794H38.4088V38.5279C39.3639 38.8655 40.0039 39.7666 40.0082 40.7794Z" fill="black"/>
<path d="M28.5797 9.3607L20.5841 17.3562L19.4531 16.2255L27.449 8.22968L28.5797 9.3607Z" fill="black"/>
<path d="M24.581 8.56138L19.7835 13.3588L18.6528 12.2278L23.4503 7.43036L24.581 8.56138Z" fill="black"/>
<path d="M29.3791 13.3588L24.5816 18.1563L23.4509 17.0256L28.2481 12.2281L29.3791 13.3588Z" fill="black"/>
</svg>
