<svg width="472" height="12" viewBox="0 0 472 12" fill="none" xmlns="http://www.w3.org/2000/svg">
<line y1="11" x2="472" y2="11" stroke="#213337" stroke-width="2"/>
<rect x="1.83374" width="3.28856" height="9.89313" fill="#5B8174"/>
<rect x="17.1804" width="3.28856" height="9.89313" fill="#5B8174"/>
<rect x="12.0649" width="3.28856" height="9.89313" fill="#5B8174"/>
<rect x="6.94922" width="3.28856" height="9.89313" fill="#5B8174"/>
<rect x="43" width="3.28856" height="9.89313" fill="#5B8174"/>
<rect x="58" width="3.28856" height="9.89313" fill="#5B8174"/>
<rect x="53" width="3.28856" height="9.89313" fill="#5B8174"/>
<rect x="48" width="3.28856" height="9.89313" fill="#5B8174"/>
<rect x="22.2959" width="3.28856" height="9.89313" fill="#5B8174"/>
<rect x="37.6426" width="3.28856" height="9.89313" fill="#5B8174"/>
<rect x="32.5271" width="3.28856" height="9.89313" fill="#5B8174"/>
<rect x="27.4114" width="3.28856" height="9.89313" fill="#5B8174"/>
<rect x="124.607" width="3.28856" height="9.89313" fill="#5B8174"/>
<rect x="139.953" width="3.28856" height="9.89313" fill="#5B8174"/>
<rect x="134.838" width="3.28856" height="9.89313" fill="#5B8174"/>
<rect x="129.722" width="3.28856" height="9.89313" fill="#5B8174"/>
<rect x="165.531" width="3.28856" height="9.89313" fill="#5B8174"/>
<rect x="180.878" width="3.28856" height="9.89313" fill="#5B8174"/>
<rect x="175.762" width="3.28856" height="9.89313" fill="#5B8174"/>
<rect x="170.646" width="3.28856" height="9.89313" fill="#5B8174"/>
<rect x="145.069" width="3.28856" height="9.89313" fill="#5B8174"/>
<rect x="160.416" width="3.28856" height="9.89313" fill="#5B8174"/>
<rect x="155.3" width="3.28856" height="9.89313" fill="#5B8174"/>
<rect x="150.184" width="3.28856" height="9.89313" fill="#5B8174"/>
<rect x="185.993" width="3.28856" height="9.89313" fill="#5B8174"/>
<rect x="201.34" width="3.28856" height="9.89313" fill="#5B8174"/>
<rect x="196.224" width="3.28856" height="9.89313" fill="#5B8174"/>
<rect x="191.109" width="3.28856" height="9.89313" fill="#5B8174"/>
<rect x="226.917" width="3.28856" height="9.89313" fill="#5B8174"/>
<rect x="242" width="3.28856" height="9.89313" fill="#5B8174"/>
<rect x="237" width="3.28856" height="9.89313" fill="#5B8174"/>
<rect x="232" width="3.28856" height="9.89313" fill="#5B8174"/>
<rect x="206.455" width="3.28856" height="9.89313" fill="#5B8174"/>
<rect x="221.802" width="3.28856" height="9.89313" fill="#5B8174"/>
<rect x="216.687" width="3.28856" height="9.89313" fill="#5B8174"/>
<rect x="211.571" width="3.28856" height="9.89313" fill="#5B8174"/>
<rect x="247" width="3.28856" height="9.89313" fill="#5B8174"/>
<rect x="262" width="3.28856" height="9.89313" fill="#5B8174"/>
<rect x="257" width="3.28856" height="9.89313" fill="#5B8174"/>
<rect x="252" width="3.28856" height="9.89313" fill="#5B8174"/>
<rect x="287" width="3.28856" height="9.89313" fill="#5B8174"/>
<rect x="302" width="3.28856" height="9.89313" fill="#5B8174"/>
<rect x="297" width="3.28856" height="9.89313" fill="#5B8174"/>
<rect x="292" width="3.28856" height="9.89313" fill="#5B8174"/>
<rect x="267" width="3.28856" height="9.89313" fill="#5B8174"/>
<rect x="282" width="3.28856" height="9.89313" fill="#5B8174"/>
<rect x="277" width="3.28856" height="9.89313" fill="#5B8174"/>
<rect x="272" width="3.28856" height="9.89313" fill="#5B8174"/>
<rect x="307" width="3.28856" height="9.89313" fill="#5B8174"/>
<rect x="322" width="3.28856" height="9.89313" fill="#5B8174"/>
<rect x="317" width="3.28856" height="9.89313" fill="#5B8174"/>
<rect x="312" width="3.28856" height="9.89313" fill="#5B8174"/>
<rect x="347" width="3.28856" height="9.89313" fill="#5B8174"/>
<rect x="362" width="3.28856" height="9.89313" fill="#5B8174"/>
<rect x="357" width="3.28856" height="9.89313" fill="#5B8174"/>
<rect x="352" width="3.28856" height="9.89313" fill="#5B8174"/>
<rect x="327" width="3.28856" height="9.89313" fill="#5B8174"/>
<rect x="342" width="3.28856" height="9.89313" fill="#5B8174"/>
<rect x="337" width="3.28856" height="9.89313" fill="#5B8174"/>
<rect x="332" width="3.28856" height="9.89313" fill="#5B8174"/>
<rect x="377.231" width="3.28856" height="9.89313" fill="#5B8174"/>
<rect x="372.115" width="3.28856" height="9.89313" fill="#5B8174"/>
<rect x="367" width="3.28856" height="9.89313" fill="#5B8174"/>
<rect x="382" width="3.28856" height="9.89313" fill="#5B8174"/>
<rect x="397" width="3.28856" height="9.89313" fill="#5B8174"/>
<rect x="392.115" width="3.28856" height="9.89313" fill="#5B8174"/>
<rect x="387" width="3.28856" height="9.89313" fill="#5B8174"/>
<rect x="412.231" width="3.28856" height="9.89313" fill="#5B8174"/>
<rect x="407.115" width="3.28856" height="9.89313" fill="#5B8174"/>
<rect x="402" width="3.28856" height="9.89313" fill="#5B8174"/>
<rect x="416.884" width="3.28856" height="9.89313" fill="#5B8174"/>
<rect x="432.231" width="3.28856" height="9.89313" fill="#5B8174"/>
<rect x="427.115" width="3.28856" height="9.89313" fill="#5B8174"/>
<rect x="422" width="3.28856" height="9.89313" fill="#5B8174"/>
<rect x="437" width="3.28856" height="9.89313" fill="#5B8174"/>
<rect x="442.538" width="3.28856" height="9.89313" fill="#5B8174"/>
<rect x="457.885" width="3.28856" height="9.89313" fill="#5B8174"/>
<rect x="452.769" width="3.28856" height="9.89313" fill="#5B8174"/>
<rect x="447.654" width="3.28856" height="9.89313" fill="#5B8174"/>
<rect x="463" width="3.28856" height="9.89313" fill="#5B8174"/>
<rect x="63" width="3.28856" height="9.89313" fill="#5B8174"/>
<rect x="78" width="3.28856" height="9.89313" fill="#5B8174"/>
<rect x="73" width="3.28856" height="9.89313" fill="#5B8174"/>
<rect x="68" width="3.28856" height="9.89313" fill="#5B8174"/>
<rect x="104" width="3.28856" height="9.89313" fill="#5B8174"/>
<rect x="119.491" width="3.28856" height="9.89313" fill="#5B8174"/>
<rect x="114.376" width="3.28856" height="9.89313" fill="#5B8174"/>
<rect x="109.26" width="3.28856" height="9.89313" fill="#5B8174"/>
<rect x="83" width="3.28856" height="9.89313" fill="#5B8174"/>
<rect x="98" width="3.28856" height="9.89313" fill="#5B8174"/>
<rect x="93" width="3.28856" height="9.89313" fill="#5B8174"/>
<rect x="88" width="3.28856" height="9.89313" fill="#5B8174"/>
<rect x="468" width="3.28856" height="9.89313" fill="#5B8174"/>
</svg>
