<svg width="630" height="271" viewBox="0 0 630 271" fill="none" xmlns="http://www.w3.org/2000/svg">
<rect x="53" width="271" height="271" rx="3" fill="#DE9780"/>
<path d="M128.077 123.88C128.325 123.368 128.951 123.144 129.489 123.315L139.705 126.568C140.213 126.73 140.428 127.24 140.193 127.723L86.4038 237.972C86.2242 238.341 85.8283 238.604 85.3961 238.629C82.5034 238.793 71.862 239.146 73.9887 235.25C76.3144 230.99 123.116 134.147 128.077 123.88Z" fill="#E8CEC1"/>
<path d="M128 130.054C127.836 129.525 128.146 129.019 128.693 128.925L139.616 127.053C140.161 126.959 140.734 127.312 140.895 127.84L158.845 186.626C159.006 187.152 158.698 187.654 158.156 187.749L147.558 189.615C147.014 189.711 146.44 189.361 146.276 188.834L128 130.054Z" fill="#E8CEC1"/>
<path d="M176.654 167.713C176.654 167.159 177.105 166.71 177.659 166.713L189.058 166.772C189.61 166.775 190.055 167.224 190.053 167.777L189.727 239.677C189.725 240.227 189.278 240.672 188.727 240.672H177.654C177.102 240.672 176.654 240.224 176.654 239.672V167.713Z" fill="#E8CEC1"/>
<path d="M176.654 124.004C176.654 123.451 177.103 123.003 177.656 123.004L189.05 123.031C189.605 123.032 190.053 123.485 190.047 124.041L189.733 155.632C189.727 156.18 189.281 156.622 188.733 156.622H177.654C177.102 156.622 176.654 156.174 176.654 155.622V124.004Z" fill="#E8CEC1"/>
<path d="M186.593 176.794C186.039 176.794 185.59 176.343 185.593 175.789L185.634 166.708L233.74 166.954C234.29 166.957 234.735 167.404 234.735 167.954V175.794C234.735 176.346 234.287 176.794 233.735 176.794H186.593Z" fill="#E8CEC1"/>
<path d="M186.594 133.088C186.04 133.088 185.591 132.636 185.594 132.082L185.647 123.002L247.143 123.25C247.693 123.252 248.139 123.699 248.139 124.25V132.088C248.139 132.64 247.691 133.088 247.139 133.088H186.594Z" fill="#E8CEC1"/>
<line x1="307" y1="188.5" x2="388.006" y2="188.5" stroke="#213337" stroke-width="3"/>
<path d="M9.224 253.624H26V255.304H18.152V264.4H26V266.08H9.224V264.4H16.76V255.304H9.224V253.624ZM26.168 242.255C26.168 243.807 25.808 245.215 25.088 246.479C24.352 247.743 23.336 248.743 22.04 249.479C20.728 250.199 19.248 250.559 17.6 250.559C15.952 250.559 14.48 250.199 13.184 249.479C11.872 248.743 10.856 247.743 10.136 246.479C9.4 245.215 9.032 243.807 9.032 242.255C9.032 240.687 9.4 239.271 10.136 238.007C10.856 236.743 11.872 235.751 13.184 235.031C14.48 234.311 15.952 233.951 17.6 233.951C19.248 233.951 20.728 234.311 22.04 235.031C23.336 235.751 24.352 236.743 25.088 238.007C25.808 239.271 26.168 240.687 26.168 242.255ZM24.704 242.255C24.704 241.007 24.416 239.887 23.84 238.895C23.264 237.903 22.44 237.119 21.368 236.543C20.28 235.967 19.024 235.679 17.6 235.679C16.176 235.679 14.928 235.967 13.856 236.543C12.784 237.119 11.96 237.903 11.384 238.895C10.808 239.887 10.52 241.007 10.52 242.255C10.52 243.503 10.808 244.623 11.384 245.615C11.96 246.607 12.784 247.391 13.856 247.967C14.928 248.543 16.176 248.831 17.6 248.831C19.024 248.831 20.28 248.543 21.368 247.967C22.44 247.391 23.264 246.607 23.84 245.615C24.416 244.623 24.704 243.503 24.704 242.255ZM9.44 214.485H26V216.165H12.776L26 222.069V223.293L12.824 229.197H26V230.877H9.44V229.101L23.792 222.693L9.44 216.285V214.485ZM10.592 208.994H16.856V202.634H18.248V208.994H24.608V201.914H26V210.674H9.2L9.2 201.914H10.592L10.592 208.994ZM28.712 189.033V191.769H6.776V189.033H28.712ZM12.392 176.409C12.392 175.929 12.56 175.521 12.896 175.185C13.232 174.849 13.648 174.681 14.144 174.681C14.64 174.681 15.056 174.849 15.392 175.185C15.728 175.521 15.896 175.929 15.896 176.409C15.896 176.905 15.728 177.321 15.392 177.657C15.056 177.993 14.64 178.161 14.144 178.161C13.648 178.161 13.232 177.993 12.896 177.657C12.56 177.321 12.392 176.905 12.392 176.409ZM17.6 177.633V175.353L29.24 175.041V177.945L17.6 177.633ZM9.32 157.442H26V160.178H18.704V168.026H26V170.762H9.32V168.026H16.472V160.178H9.32V157.442ZM26.168 146.233C26.168 147.785 25.808 149.217 25.088 150.529C24.352 151.825 23.336 152.857 22.04 153.625C20.728 154.377 19.256 154.753 17.624 154.753C15.992 154.753 14.528 154.377 13.232 153.625C11.936 152.857 10.928 151.825 10.208 150.529C9.472 149.217 9.104 147.785 9.104 146.233C9.104 144.665 9.472 143.233 10.208 141.937C10.928 140.625 11.936 139.593 13.232 138.841C14.528 138.089 15.992 137.713 17.624 137.713C19.256 137.713 20.728 138.089 22.04 138.841C23.336 139.593 24.352 140.625 25.088 141.937C25.808 143.233 26.168 144.665 26.168 146.233ZM23.792 146.233C23.792 145.129 23.544 144.145 23.048 143.281C22.536 142.417 21.816 141.745 20.888 141.265C19.944 140.769 18.856 140.521 17.624 140.521C16.392 140.521 15.312 140.769 14.384 141.265C13.456 141.745 12.744 142.417 12.248 143.281C11.752 144.145 11.504 145.129 11.504 146.233C11.504 147.337 11.752 148.321 12.248 149.185C12.744 150.049 13.456 150.729 14.384 151.225C15.312 151.705 16.392 151.945 17.624 151.945C18.856 151.945 19.944 151.705 20.888 151.225C21.816 150.729 22.536 150.049 23.048 149.185C23.544 148.321 23.792 147.337 23.792 146.233ZM23.792 132.284V126.644H26V135.02H9.32V132.284H23.792ZM22.592 114.3V121.284L26 122.484V125.34L9.296 119.364V116.196L26 110.22V113.1L22.592 114.3ZM20.36 115.068L12.608 117.78L20.36 120.516V115.068ZM9.32 104.19L20.96 104.502V106.782L9.32 107.094V104.19ZM26.168 105.558C26.168 106.054 26 106.47 25.664 106.806C25.328 107.142 24.912 107.31 24.416 107.31C23.92 107.31 23.504 107.142 23.168 106.806C22.832 106.47 22.664 106.054 22.664 105.558C22.664 105.078 22.832 104.67 23.168 104.334C23.504 103.998 23.92 103.83 24.416 103.83C24.912 103.83 25.328 103.998 25.664 104.334C26 104.67 26.168 105.078 26.168 105.558Z" fill="#213337"/>
<path d="M478.584 187.016L476.808 195.32H483.144V200.12H475.8L473.88 209H468.648L470.568 200.12H461.16L459.24 209H454.008L455.928 200.12H448.488V195.32H456.936L458.712 187.016H451.32V182.216H459.72L461.592 173.48H466.824L464.952 182.216H474.36L476.232 173.48H481.464L479.592 182.216H485.976V187.016H478.584ZM473.352 187.016H463.944L462.168 195.32H471.576L473.352 187.016ZM496.587 181.784C497.547 181.784 498.363 182.12 499.035 182.792C499.707 183.464 500.043 184.296 500.043 185.288C500.043 186.28 499.707 187.112 499.035 187.784C498.363 188.456 497.547 188.792 496.587 188.792C495.595 188.792 494.763 188.456 494.091 187.784C493.419 187.112 493.083 186.28 493.083 185.288C493.083 184.296 493.419 183.464 494.091 182.792C494.763 182.12 495.595 181.784 496.587 181.784ZM494.139 192.2H498.699L499.323 215.48H493.515L494.139 192.2ZM534.521 175.64V209H529.049V194.408H513.353V209H507.881V175.64H513.353V189.944H529.049V175.64H534.521ZM553.197 209.432C550.701 209.432 548.445 208.872 546.429 207.752C544.413 206.6 542.829 205 541.677 202.952C540.525 200.872 539.949 198.472 539.949 195.752C539.949 193.064 540.541 190.68 541.725 188.6C542.909 186.52 544.525 184.92 546.573 183.8C548.621 182.68 550.909 182.12 553.437 182.12C555.965 182.12 558.253 182.68 560.301 183.8C562.349 184.92 563.965 186.52 565.149 188.6C566.333 190.68 566.925 193.064 566.925 195.752C566.925 198.44 566.317 200.824 565.101 202.904C563.885 204.984 562.221 206.6 560.109 207.752C558.029 208.872 555.725 209.432 553.197 209.432ZM553.197 204.68C554.605 204.68 555.917 204.344 557.133 203.672C558.381 203 559.389 201.992 560.157 200.648C560.925 199.304 561.309 197.672 561.309 195.752C561.309 193.832 560.941 192.216 560.205 190.904C559.469 189.56 558.493 188.552 557.277 187.88C556.061 187.208 554.749 186.872 553.341 186.872C551.933 186.872 550.621 187.208 549.405 187.88C548.221 188.552 547.277 189.56 546.573 190.904C545.869 192.216 545.517 193.832 545.517 195.752C545.517 198.6 546.237 200.808 547.677 202.376C549.149 203.912 550.989 204.68 553.197 204.68ZM577.806 173.48V209H572.334V173.48H577.806ZM583.167 195.656C583.167 193 583.711 190.648 584.799 188.6C585.919 186.552 587.423 184.968 589.311 183.848C591.231 182.696 593.343 182.12 595.647 182.12C597.727 182.12 599.535 182.536 601.071 183.368C602.639 184.168 603.887 185.176 604.815 186.392V182.552H610.335V209H604.815V205.064C603.887 206.312 602.623 207.352 601.023 208.184C599.423 209.016 597.599 209.432 595.551 209.432C593.279 209.432 591.199 208.856 589.311 207.704C587.423 206.52 585.919 204.888 584.799 202.808C583.711 200.696 583.167 198.312 583.167 195.656ZM604.815 195.752C604.815 193.928 604.431 192.344 603.663 191C602.927 189.656 601.951 188.632 600.735 187.928C599.519 187.224 598.207 186.872 596.799 186.872C595.391 186.872 594.079 187.224 592.863 187.928C591.647 188.6 590.655 189.608 589.887 190.952C589.151 192.264 588.783 193.832 588.783 195.656C588.783 197.48 589.151 199.08 589.887 200.456C590.655 201.832 591.647 202.888 592.863 203.624C594.111 204.328 595.423 204.68 596.799 204.68C598.207 204.68 599.519 204.328 600.735 203.624C601.951 202.92 602.927 201.896 603.663 200.552C604.431 199.176 604.815 197.576 604.815 195.752ZM624.386 175.64L623.762 198.92H619.202L618.578 175.64H624.386ZM621.65 209.336C620.658 209.336 619.826 209 619.154 208.328C618.482 207.656 618.146 206.824 618.146 205.832C618.146 204.84 618.482 204.008 619.154 203.336C619.826 202.664 620.658 202.328 621.65 202.328C622.61 202.328 623.426 202.664 624.098 203.336C624.77 204.008 625.106 204.84 625.106 205.832C625.106 206.824 624.77 207.656 624.098 208.328C623.426 209 622.61 209.336 621.65 209.336Z" fill="#213337"/>
</svg>
